<svg width="109" height="19" viewBox="0 0 109 19" fill="none" xmlns="http://www.w3.org/2000/svg">
<path d="M14.3789 0.726562V3.78516H9.21094V18H5.57812V3.78516H0.386719V0.726562H14.3789ZM22.6406 16.1953C22.6094 16.2344 22.5312 16.3516 22.4062 16.5469C22.2812 16.7422 22.1328 16.9141 21.9609 17.0625C21.4375 17.5312 20.9297 17.8516 20.4375 18.0234C19.9531 18.1953 19.3828 18.2812 18.7266 18.2812C16.8359 18.2812 15.5625 17.6016 14.9062 16.2422C14.5391 15.4922 14.3555 14.3867 14.3555 12.9258V5.22656H17.7773V12.9258C17.7773 13.6523 17.8633 14.1992 18.0352 14.5664C18.3398 15.2148 18.9375 15.5391 19.8281 15.5391C20.9688 15.5391 21.75 15.0781 22.1719 14.1562C22.3906 13.6562 22.5 12.9961 22.5 12.1758V5.22656H25.8867V18H22.6406V16.1953ZM35.1328 7.69922C34 7.69922 33.2227 8.17969 32.8008 9.14062C32.582 9.64844 32.4727 10.2969 32.4727 11.0859V18H29.1445V5.25H32.3672V7.11328C32.7969 6.45703 33.2031 5.98438 33.5859 5.69531C34.2734 5.17969 35.1445 4.92188 36.1992 4.92188C37.5195 4.92188 38.5977 5.26953 39.4336 5.96484C40.2773 6.65234 40.6992 7.79688 40.6992 9.39844V18H37.2773V10.2305C37.2773 9.55859 37.1875 9.04297 37.0078 8.68359C36.6797 8.02734 36.0547 7.69922 35.1328 7.69922ZM54.7266 14.25C54.6406 15.0078 54.2461 15.7773 53.543 16.5586C52.4492 17.8008 50.918 18.4219 48.9492 18.4219C47.3242 18.4219 45.8906 17.8984 44.6484 16.8516C43.4062 15.8047 42.7852 14.1016 42.7852 11.7422C42.7852 9.53125 43.3438 7.83594 44.4609 6.65625C45.5859 5.47656 47.043 4.88672 48.832 4.88672C49.8945 4.88672 50.8516 5.08594 51.7031 5.48438C52.5547 5.88281 53.2578 6.51172 53.8125 7.37109C54.3125 8.12891 54.6367 9.00781 54.7852 10.0078C54.8711 10.5938 54.9062 11.4375 54.8906 12.5391H46.1484C46.1953 13.8203 46.5977 14.7188 47.3555 15.2344C47.8164 15.5547 48.3711 15.7148 49.0195 15.7148C49.707 15.7148 50.2656 15.5195 50.6953 15.1289C50.9297 14.918 51.1367 14.625 51.3164 14.25H54.7266ZM51.4219 10.3359C51.3672 9.45312 51.0977 8.78516 50.6133 8.33203C50.1367 7.87109 49.543 7.64062 48.832 7.64062C48.0586 7.64062 47.457 7.88281 47.0273 8.36719C46.6055 8.85156 46.3398 9.50781 46.2305 10.3359H51.4219ZM63.6914 15.5039C64.543 15.5039 65.2344 15.4102 65.7656 15.2227C66.7734 14.8633 67.2773 14.1953 67.2773 13.2188C67.2773 12.6484 67.0273 12.207 66.5273 11.8945C66.0273 11.5898 65.2422 11.3203 64.1719 11.0859L62.3438 10.6758C60.5469 10.2695 59.3047 9.82812 58.6172 9.35156C57.4531 8.55469 56.8711 7.30859 56.8711 5.61328C56.8711 4.06641 57.4336 2.78125 58.5586 1.75781C59.6836 0.734375 61.3359 0.222656 63.5156 0.222656C65.3359 0.222656 66.8867 0.707031 68.168 1.67578C69.457 2.63672 70.1328 4.03516 70.1953 5.87109H66.7266C66.6641 4.83203 66.2109 4.09375 65.3672 3.65625C64.8047 3.36719 64.1055 3.22266 63.2695 3.22266C62.3398 3.22266 61.5977 3.41016 61.043 3.78516C60.4883 4.16016 60.2109 4.68359 60.2109 5.35547C60.2109 5.97266 60.4844 6.43359 61.0312 6.73828C61.3828 6.94141 62.1328 7.17969 63.2812 7.45312L66.2578 8.16797C67.5625 8.48047 68.5469 8.89844 69.2109 9.42188C70.2422 10.2344 70.7578 11.4102 70.7578 12.9492C70.7578 14.5273 70.1523 15.8398 68.9414 16.8867C67.7383 17.9258 66.0352 18.4453 63.832 18.4453C61.582 18.4453 59.8125 17.9336 58.5234 16.9102C57.2344 15.8789 56.5898 14.4648 56.5898 12.668H60.0352C60.1445 13.457 60.3594 14.0469 60.6797 14.4375C61.2656 15.1484 62.2695 15.5039 63.6914 15.5039ZM84.7031 10.5V18H81.293V10.2305C81.293 9.54297 81.1758 8.98828 80.9414 8.56641C80.6367 7.97266 80.0586 7.67578 79.207 7.67578C78.3242 7.67578 77.6523 7.97266 77.1914 8.56641C76.7383 9.15234 76.5117 9.99219 76.5117 11.0859V18H73.1836V0.785156H76.5117V6.89062C76.9961 6.14844 77.5547 5.63281 78.1875 5.34375C78.8281 5.04688 79.5 4.89844 80.2031 4.89844C80.9922 4.89844 81.707 5.03516 82.3477 5.30859C82.9961 5.58203 83.5273 6 83.9414 6.5625C84.293 7.03906 84.5078 7.53125 84.5859 8.03906C84.6641 8.53906 84.7031 9.35938 84.7031 10.5ZM91.2656 5.22656V18H87.8789V5.22656H91.2656ZM91.2656 0.621094V3.70312H87.8789V0.621094H91.2656ZM100.5 0.621094V3.33984C100.312 3.31641 99.9961 3.30078 99.5508 3.29297C99.1133 3.27734 98.8086 3.375 98.6367 3.58594C98.4727 3.78906 98.3906 4.01562 98.3906 4.26562V5.34375H100.582V7.69922H98.3906V18H95.0625V7.69922H93.1992V5.34375H95.0273V4.52344C95.0273 3.15625 95.2578 2.21484 95.7188 1.69922C96.2031 0.933594 97.3711 0.550781 99.2227 0.550781C99.4336 0.550781 99.625 0.558594 99.7969 0.574219C99.9688 0.582031 100.203 0.597656 100.5 0.621094ZM108.352 15.6211V18.1172L106.77 18.1758C105.191 18.2305 104.113 17.957 103.535 17.3555C103.16 16.9727 102.973 16.3828 102.973 15.5859V7.72266H101.191V5.34375H102.973V1.78125H106.277V5.34375H108.352V7.72266H106.277V14.4727C106.277 14.9961 106.344 15.3242 106.477 15.457C106.609 15.582 107.016 15.6445 107.695 15.6445C107.797 15.6445 107.902 15.6445 108.012 15.6445C108.129 15.6367 108.242 15.6289 108.352 15.6211Z" fill="white"/>
</svg>
